
<svg width="650" height="470" viewBox="0 0 650 470" fill="white" xmlns="http://www.w3.org/2000/svg">

    <defs>
    <g id="polygon" fill="white" stroke-width="1" stroke="black">
    <polygon points="150,100 146.62361147021778,118.06208330935765 136.95044586103296,133.68478218232787 122.28691778882691,144.7581645677531 104.6134179731651,149.78670881475173 86.31685049639586,148.09128215864095 69.86826818103718,139.90086136401197 57.4891432135193,126.3216081438678 50.85134501580491,109.18747589082852 50.85134501580491,90.81252410917149 57.48914321351929,73.67839185613221 69.86826818103714,60.099138635988055 86.31685049639584,51.90871784135905 104.61341797316513,50.21329118524827 122.28691778882688,55.24183543224687 136.95044586103293,66.3152178176721 146.62361147021778,81.93791669064235 " fill="none" stroke="black" />
    <line x1="150" y1="100" x2="100" y2="100"/><line x1="146.62361147021778" y1="118.06208330935765" x2="100" y2="100"/><line x1="136.95044586103296" y1="133.68478218232787" x2="100" y2="100"/><line x1="122.28691778882691" y1="144.7581645677531" x2="100" y2="100"/><line x1="104.6134179731651" y1="149.78670881475173" x2="100" y2="100"/><line x1="86.31685049639586" y1="148.09128215864095" x2="100" y2="100"/><line x1="69.86826818103718" y1="139.90086136401197" x2="100" y2="100"/><line x1="57.4891432135193" y1="126.3216081438678" x2="100" y2="100"/><line x1="50.85134501580491" y1="109.18747589082852" x2="100" y2="100"/><line x1="50.85134501580491" y1="90.81252410917149" x2="100" y2="100"/><line x1="57.48914321351929" y1="73.67839185613221" x2="100" y2="100"/><line x1="69.86826818103714" y1="60.099138635988055" x2="100" y2="100"/><line x1="86.31685049639584" y1="51.90871784135905" x2="100" y2="100"/><line x1="104.61341797316513" y1="50.21329118524827" x2="100" y2="100"/><line x1="122.28691778882688" y1="55.24183543224687" x2="100" y2="100"/><line x1="136.95044586103293" y1="66.3152178176721" x2="100" y2="100"/><line x1="146.62361147021778" y1="81.93791669064235" x2="100" y2="100"/>
    <animateTransform
                    attributeName="transform"
                    attributeType="XML"
                    type="rotate"
                    from="0 100 100"
                    dur="10s"
                    to="360 100 100"
                    repeatCount="indefinite" />
    </g>
    </defs>
    
    <rect width="650" height="472" fill="white"/>
    
    <use href = "#polygon" transform = "translate(-25,-22) scale(0.75, 0.75)"/>
    <use href = "#polygon" transform = "translate(140, 35) scale(0.75, 0.75)"/>
    
    <rect x="45.603" y="43.6511" width="187.554" height="14.1385" transform="rotate(19 45.603 43.6511)" fill="#FF3333"/>
    <path d="M134 83L157.383 213.5H110.617L134 83Z" fill="#993399"/>
    
    <use href = "#polygon" transform = "translate(420, -10) scale(0.5, 0.5)"/>
    <use href = "#polygon" transform = "translate(555, 36) scale(0.5, 0.5)"/>
    
    <rect x="467.893" y="34.0617" width="151.257" height="11.1135" transform="rotate(19 467.893 34.0617)" fill="#FF3333"/>
    <path d="M538 62L557 168H519L538 62Z" fill="#339933"/>
    
    <use href = "#polygon" transform = "translate(140, 140) scale(1, 1)"/>
    <use href = "#polygon" transform = "translate(380, 220) scale(1, 1)"/>
    
    <rect x="235.952" y="230.776" width="267.211" height="18.6861" transform="rotate(18 235.952 230.776)" fill="#FF3333"/>
    <path d="M361 282L394.775 466.5H327.225L361 282Z" fill="#3333FF"/>
    </svg>
    